# AST/ASF file generated using VICON BodyLanguage
# -----------------------------------------------
:version 1.10
:name VICON
:units
  mass 1.0
  length 0.45
  angle deg
:documentation
   .ast/.asf automatically generated from VICON data using
   VICON BodyBuilder and BodyLanguage model FoxedUp or BRILLIANT.MOD
:root
   order TX TY TZ RX RY RZ
   axis XYZ
   position 0 0 0  
   orientation 0 0 0 
:bonedata
  begin
     id 1 
     name lhipjoint
     direction 0.604623 -0.733026 0.311616 
     length 2.56391 
     axis 0 0 0  XYZ
  end
  begin
     id 2 
     name lfemur
     direction 0.34202 -0.939693 0  
     length 7.75596  
     axis 0 0 20  XYZ
    dof rx ry rz
    limits (-160.0 20.0)
           (-70.0 70.0)
           (-60.0 70.0)
  end
  begin
     id 3 
     name ltibia
     direction 0.34202 -0.939693 0   
     length 7.63697   
     axis 0 0 20   XYZ
    dof rx
    limits (-10.0 170.0)
  end
  begin
     id 4 
     name lfoot
     direction 0.048038 -0.131983 0.990087   
     length 1.94388   
     axis -90 7.62852e-016 20   XYZ
    dof rx rz
    limits (-45.0 90.0)
           (-70.0 20.0)
  end
  begin
     id 5 
     name ltoes
     direction 1.53565e-011 -4.21929e-011 1   
     length 0.984801   
     axis -90 7.62852e-016 20   XYZ
    dof rx
    limits (-90.0 20.0)
  end
  begin
     id 6 
     name rhipjoint
     direction -0.609162 -0.729836 0.31026   
     length 2.57511  
     axis 0 0 0  XYZ 
  end
  begin
     id 7 
     name rfemur
     direction -0.34202 -0.939693 0   
     length 7.60772   
     axis 0 0 -20   XYZ
    dof rx ry rz
    limits (-160.0 20.0)
           (-70.0 70.0)
           (-70.0 60.0)
  end
  begin
     id 8 
     name rtibia
     direction -0.34202 -0.939693 0   
     length 7.68497   
     axis 0 0 -20   XYZ
    dof rx
    limits (-10.0 170.0)
 end
 begin
     id 9 
     name rfoot
     direction -0.0969806 -0.266452 0.958957   
     length 2.01398  
     axis -90 -7.62852e-016 -20   XYZ
    dof rx rz
    limits (-45.0 90.0)
           (-20.0 70.0)
  end
  begin
     id 10 
     name rtoes
     direction -1.53552e-011 -4.21869e-011 1   
     length 1.00896   
     axis -90 -7.62852e-016 -20   XYZ
    dof rx
    limits (-90.0 20.0)
  end
  begin
     id 11 
     name lowerback
     direction 0.0305179 0.993923 -0.10576   
     length 2.09077   
     axis 0 0 0   XYZ
    dof rx ry rz
    limits (-20.0 45.0)
           (-30.0 30.0)
           (-30.0 30.0)
  end
  begin
     id 12 
     name upperback
     direction -0.0137909 0.999867 0.00873764   
     length 2.08918   
     axis 0 0 0   XYZ
    dof rx ry rz
    limits (-20.0 45.0)
           (-30.0 30.0)
           (-30.0 30.0)
  end
  begin
     id 13 
     name thorax
     direction -0.0278536 0.997917 0.0581839   
     length 2.11939   
     axis 0 0 0   XYZ
    dof rx ry rz
    limits (-20.0 45.0)
           (-30.0 30.0)
           (-30.0 30.0)
  end
  begin
     id 14 
     name lowerneck
     direction 0.0138689 0.999837 -0.0116016   
     length 1.74353   
     axis 0 0 0   XYZ
    dof rx ry rz
    limits (-20.0 45.0)
           (-30.0 30.0)
           (-30.0 30.0)
  end
  begin
     id 15 
     name upperneck
     direction -0.00992078 0.999667 0.0238149   
     length 1.71734   
     axis 0 0 0   XYZ
    dof rx ry rz
    limits (-20.0 45.0)
           (-30.0 30.0)
           (-30.0 30.0)
  end
  begin
     id 16
     name head
     direction -0.00530555 0.999941 0.00944937  
     length 1.78249  
     axis 0 0 0   XYZ
    dof rx ry rz
    limits (-20.0 45.0)
           (-30.0 30.0)
           (-30.0 30.0)
  end
  begin
     id 17 
     name lclavicle
     direction 0.929165 0.366864 0.0454227  
     length 3.65686  
     axis 0 0 0   XYZ
    dof ry rz
    limits (-20.0 10.0)
           (0.0 20.0)
  end
  begin
     id 18 
     name lhumerus
     direction 1 -4.4897e-011 3.05413e-018   
     length 5.15218   
     axis -180 -30 -90   XYZ
    dof rx ry rz
    limits (-60.0 90.0)
           (-90.0 90.0)
           (-90.0 90.0)
  end
  begin
     id 19
     name lradius
     direction 1 -4.48963e-011 5.40022e-027   
     length 3.49459   
     axis -180 -30 -90   XYZ
    dof rx
    limits (-10.0 170.0)
  end
  begin
     id 20
     name lwrist
     direction 1 -4.48966e-011 9.79369e-027   
     length 1.7473   
     axis -4.67603e-015 90 90   XYZ
    dof ry
    limits (-180.0 0.0)
 end
  begin
     id 21 
     name lhand
     direction 1 -4.48996e-011 1.9593e-026   
     length 0.512466   
     axis -1.24987e-014 90 90   XYZ
    dof rx rz
    limits (-90.0 90.0)
           (-45.0 45.0)
  end
  begin
     id 22 
     name lfingers
     direction 1 -4.48931e-011 3.91616e-026   
     length 0.413163   
     axis -2.49979e-014 90 90   XYZ
    dof rx
    limits (0.0 90.0)
  end
  begin
     id 23
     name lthumb
     direction 0.707107 -6.34959e-011 0.707107   
     length 0.593222   
     axis -90 45 5.69224e-014   XYZ
    dof rx rz
    limits (-45.0 45.0)
           (-45.0 45.0)
  end
  begin
     id 24 
     name rclavicle
     direction -0.951469 0.307727 0.00346571   
     length 3.42864  
     axis 0 0 0   XYZ 
    dof ry rz
    limits (-10.0 20.0)
           (-20.0 0.0)
  end
  begin
     id 25 
     name rhumerus
     direction -1 -4.48967e-011 2.58643e-027  
     length 5.44344   
     axis -180 30 90   XYZ
    dof rx ry rz
    limits (-90.0 60.0)
           (-90.0 90.0)
           (-90.0 90.0)
  end
  begin
     id 26 
     name rradius
     direction -1 -4.48973e-011 4.26485e-028   
     length 3.58403   
     axis -180 30 90   XYZ
    dof rx
    limits (-10.0 170.0)
  end
  begin
     id 27 
     name rwrist
     direction -1 -4.48962e-011 9.79331e-027   
     length 1.79202   
     axis -4.67603e-015 -90 -90   XYZ
    dof ry
    limits (-180.0 0.0)
  end
  begin
     id 28
     name rhand
     direction -1 -4.48975e-011 1.95891e-026   
     length 0.34249   
     axis -1.24987e-014 -90 -90   XYZ
    dof rx rz
    limits (-90.0 90.0)
           (-45.0 45.0)
  end
  begin
     id 29
     name rfingers
     direction -1 -4.48893e-011 3.9147e-026   
     length 0.276124   
     axis -2.49979e-014 -90 -90   XYZ
    dof rx
    limits (0.0 90.0)
  end
  begin
     id 30
     name rthumb
     direction -0.707107 -6.34898e-011 0.707107   
     length 0.39646   
     axis -90 -45 -5.69224e-014   XYZ
    dof rx rz
    limits (-45.0 45.0)
           (-45.0 45.0)
  end
:hierarchy
  begin
    root lhipjoint rhipjoint lowerback
    lhipjoint lfemur
    lfemur ltibia
    ltibia lfoot
    lfoot ltoes
    rhipjoint rfemur
    rfemur rtibia
    rtibia rfoot
    rfoot rtoes
    lowerback upperback
    upperback thorax
    thorax lowerneck lclavicle rclavicle
    lowerneck upperneck
    upperneck head
    lclavicle lhumerus
    lhumerus lradius
    lradius lwrist
    lwrist lhand lthumb
    lhand lfingers
    rclavicle rhumerus
    rhumerus rradius
    rradius rwrist
    rwrist rhand rthumb
    rhand rfingers
  end

#!OML:ASF H:\charlestonDancing\Project 1\Capture day 1\Session 1\femaleDancer.ASF
:FULLY-SPECIFIED
:DEGREES
93
root -13.6306 17.2873 -8.33783 -352.958 48.6036 -356.425
lowerback 18.0337 -2.74 4.50235
upperback 2.21399 -2.3186 3.45019
thorax -7.75456 -1.15247 1.72412
lowerneck 1.03581 -4.43649 -0.632779
upperneck -0.756187 -5.8531 6.45161
head -0.185807 -2.94734 2.13816
rclavicle 9.10434e-014 3.18055e-015
rhumerus 5.45546 21.2063 -38.441
rradius 86.4435
rwrist -19.0403
rhand -10.1211 -25.3913
rfingers 7.12502
rthumb 15.867 -54.7612
lclavicle 9.10434e-014 3.18055e-015
lhumerus 11.8865 -28.0611 46.8981
lradius 83.3797
lwrist 34.6087
lhand -5.27207 21.8544
lfingers 7.12502
lthumb 20.532 50.7887
rfemur -22.2294 -8.17623 28.6483
rtibia 46.2628
rfoot -27.4423 -12.6132
rtoes -3.90558
lfemur -35.3636 -6.54102 -10.0675
ltibia 80.0085
lfoot 8.91539 -5.17351
ltoes -34.446
94
root -13.4258 17.321 -8.36639 -353.748 45.9126 -357.114
lowerback 18.5502 -2.50185 4.78495
upperback 2.45494 -1.9203 3.45278
thorax -7.78053 -0.965749 1.48295
lowerneck 0.822635 -4.38521 -0.779597
upperneck -1.00232 -5.77805 6.53115
head -0.222512 -2.91202 2.18813
rclavicle -5.4467e-014 2.54444e-014
rhumerus 6.29269 21.9429 -38.5784
rradius 86.7138
rwrist -19.0697
rhand -10.0274 -25.4558
rfingers 7.12502
rthumb 15.9572 -54.8185
lclavicle -5.4467e-014 2.54444e-014
lhumerus 10.9611 -27.2204 47.4802
lradius 83.7127
lwrist 34.4522
lhand -6.47662 22.1767
lfingers 7.12502
lthumb 19.3741 51.2316
rfemur -21.0807 -6.96867 28.1543
rtibia 45.7029
rfoot -27.3994 -11.5082
rtoes -4.72817
lfemur -36.8058 -8.06354 -7.69749
ltibia 78.2679
lfoot 7.19351 -4.47616
ltoes -23.8131
95
root -13.2131 17.3453 -8.39704 -354.366 43.6815 -357.777
lowerback 19.2851 -2.50297 5.21997
upperback 2.44157 -1.76214 3.55641
thorax -8.20385 -0.903419 1.34229
lowerneck 0.639311 -4.24286 -1.02264
upperneck -1.04578 -5.59286 6.52642
head -0.20553 -2.8173 2.22548
rclavicle 1.24042e-013 -2.54444e-014
rhumerus 7.10305 22.9627 -38.7505
rradius 86.9678
rwrist -19.0776
rhand -9.88162 -25.4006
rfingers 7.12502
rthumb 16.0976 -54.752
lclavicle 1.24042e-013 -2.54444e-014
lhumerus 9.52524 -26.4721 48.3456
lradius 84.1314
lwrist 34.3323
lhand -5.43703 22.0522
lfingers 7.12502
lthumb 20.3735 51.0035
rfemur -20.1645 -6.11828 27.7263
rtibia 45.2067
rfoot -27.463 -10.3862
rtoes -5.41979
lfemur -38.2685 -9.43099 -5.47983
ltibia 75.7984
lfoot 5.07202 -5.16249
ltoes -30.6903
96
root -12.9892 17.3599 -8.42222 -354.724 41.4147 -358.301
lowerback 19.6101 -2.46592 5.81451
upperback 2.57263 -1.56969 3.53224
thorax -8.25002 -0.828812 0.938682
lowerneck 0.347286 -4.23641 -0.972071
upperneck -1.43172 -5.56966 6.41048
head -0.281966 -2.80887 2.17764
rclavicle -5.84427e-014 -6.36111e-015
rhumerus 7.8655 23.5377 -39.0984
rradius 87.1132
rwrist -19.0276
rhand -9.74555 -25.338
rfingers 7.12502
rthumb 16.2287 -54.6788
lclavicle -5.84427e-014 -6.36111e-015
lhumerus 8.55906 -25.837 48.9134
lradius 84.4546
lwrist 34.3289
lhand -4.50474 21.4933
lfingers 7.12502
lthumb 21.2692 50.3463
rfemur -19.4847 -4.98557 27.2158
rtibia 44.8277
rfoot -27.5506 -9.49155
rtoes -6.38094
lfemur -39.4277 -10.5888 -3.33413
ltibia 72.7452
lfoot 3.28521 -6.26766
ltoes -29.9696
